<svg id="Logo" xmlns="http://www.w3.org/2000/svg" xmlns:xlink="http://www.w3.org/1999/xlink" width="187.62" height="38.46" viewBox="0 0 187.62 38.46">
  <defs>
    <clipPath id="clip-path">
      <rect id="Rectangle_1" data-name="Rectangle 1" width="187.62" height="38.46" fill="none"/>
    </clipPath>
  </defs>
  <path id="Path_1" data-name="Path 1" d="M69.2,21.6V44.906H83.031V41.172h-9.2V34.948h8.23v-3.6h-8.23V25.334l9.267-.069V21.6Z" transform="translate(-21.344 -6.662)" fill="#40e0d0"/>
  <g id="Group_2" data-name="Group 2">
    <g id="Group_1" data-name="Group 1" clip-path="url(#clip-path)">
      <path id="Path_2" data-name="Path 2" d="M108.1,41.662a6.348,6.348,0,0,1-2.628,2.42,9.026,9.026,0,0,1-4.288.9,11.98,11.98,0,0,1-4.426-.83,7.623,7.623,0,0,1-3.112-2.42,7.144,7.144,0,0,1-1.314-3.665h4.91a3.756,3.756,0,0,0,1.106,2.351,3.974,3.974,0,0,0,2.628.968,2.905,2.905,0,0,0,2.213-.761,2.706,2.706,0,0,0,.761-2.006,2.841,2.841,0,0,0-.622-1.8,4.548,4.548,0,0,0-1.591-1.176,25.12,25.12,0,0,0-2.628-.968,32.554,32.554,0,0,1-3.6-1.452,6.172,6.172,0,0,1-2.351-2.075,5.8,5.8,0,0,1-.968-3.527,5.641,5.641,0,0,1,2.144-4.7,8.566,8.566,0,0,1,5.74-1.729,8.876,8.876,0,0,1,5.878,1.8,6.781,6.781,0,0,1,2.49,4.772h-4.979a3.953,3.953,0,0,0-1.037-2.075,3.49,3.49,0,0,0-2.351-.83,3.135,3.135,0,0,0-2.075.692,2.325,2.325,0,0,0-.761,1.936,2.656,2.656,0,0,0,.622,1.729,4.782,4.782,0,0,0,1.521,1.106c.83.346,1.66.692,2.559.968a24.107,24.107,0,0,1,3.665,1.521,6.374,6.374,0,0,1,2.42,2.075,6.835,6.835,0,0,1,1.037,3.665,7.422,7.422,0,0,1-.968,3.112" transform="translate(-28.434 -6.53)" fill="#40e0d0"/>
      <path id="Path_3" data-name="Path 3" d="M135.6,21.6v3.665h-6.431V44.836h-4.633v-19.5H118.1V21.669h17.5Z" transform="translate(-36.427 -6.662)" fill="#40e0d0"/>
      <path id="Path_4" data-name="Path 4" d="M158.371,44.906l-5.463-9.059h-2.075v9.059H146.2V21.6h8.852a8.669,8.669,0,0,1,6.155,2.006,6.7,6.7,0,0,1,2.144,5.187,6.82,6.82,0,0,1-1.452,4.426,7.392,7.392,0,0,1-4.218,2.351l5.809,9.267ZM150.9,32.6h3.8c2.7,0,4.011-1.176,4.011-3.527a3.382,3.382,0,0,0-.968-2.628,4.354,4.354,0,0,0-3.043-.968h-3.8Z" transform="translate(-45.094 -6.662)" fill="#40e0d0"/>
      <path id="Path_5" data-name="Path 5" d="M179.433,25.334v6.017h8.23v3.6h-8.23v6.224H188.7v3.734H174.8V21.6h13.9v3.665Z" transform="translate(-53.916 -6.662)" fill="#40e0d0"/>
      <path id="Path_6" data-name="Path 6" d="M203.633,41.309h7.815v3.6H199V21.6h4.633Z" transform="translate(-61.38 -6.662)" fill="#40e0d0"/>
      <path id="Path_7" data-name="Path 7" d="M224.833,41.309h7.815v3.6H220.2V21.6h4.633Z" transform="translate(-67.919 -6.662)" fill="#40e0d0"/>
      <path id="Path_8" data-name="Path 8" d="M254.706,40.326H245.37l-1.66,4.7H238.8L247.375,22H252.7l8.575,23.029h-4.91ZM253.461,36.8,250,26.979l-3.458,9.82Z" transform="translate(-73.656 -6.785)" fill="#40e0d0"/>
      <path id="Path_9" data-name="Path 9" d="M73.71,8.878v1.245H68.8V3h4.841V4.176H70.183V5.9h2.974V7.011H70.183V8.878Z" transform="translate(-21.221 -0.925)" fill="#40e0d0"/>
      <path id="Path_10" data-name="Path 10" d="M82.9,10.123V3h2.559a3.722,3.722,0,0,1,1.521.277,2.9,2.9,0,0,1,1.106.761,3.715,3.715,0,0,1,.692,1.106,4.459,4.459,0,0,1,.207,1.383,5.265,5.265,0,0,1-.207,1.452,3.012,3.012,0,0,1-.692,1.106,3.715,3.715,0,0,1-1.106.692,3.612,3.612,0,0,1-1.452.277Zm4.7-3.6a4.669,4.669,0,0,0-.138-.968,1.648,1.648,0,0,0-.415-.761,2.484,2.484,0,0,0-.692-.484,1.914,1.914,0,0,0-.9-.207H84.283V8.74h1.176a2.129,2.129,0,0,0,.9-.207,2.484,2.484,0,0,0,.692-.484,2.556,2.556,0,0,0,.346-.761,1.112,1.112,0,0,0,.207-.761" transform="translate(-25.57 -0.925)" fill="#40e0d0"/>
      <path id="Path_11" data-name="Path 11" d="M101.712,8.947a1.841,1.841,0,0,0,.83-.207,1.416,1.416,0,0,0,.553-.553,2.477,2.477,0,0,0,.277-.761,3.367,3.367,0,0,0,.069-.83V3h1.383V6.6a4.792,4.792,0,0,1-.207,1.383,3.328,3.328,0,0,1-.553,1.106,2.293,2.293,0,0,1-.968.692,3.1,3.1,0,0,1-1.383.277,3.612,3.612,0,0,1-1.452-.277,3.363,3.363,0,0,1-.968-.761,3.328,3.328,0,0,1-.553-1.106A4.256,4.256,0,0,1,98.6,6.6V3h1.383V6.6a3.366,3.366,0,0,0,.069.83,3.371,3.371,0,0,0,.277.761,2.1,2.1,0,0,0,.553.553,1.841,1.841,0,0,0,.83.207" transform="translate(-30.412 -0.925)" fill="#40e0d0"/>
      <path id="Path_12" data-name="Path 12" d="M114.4,6.419a4.343,4.343,0,0,1,.207-1.314A3.012,3.012,0,0,1,115.3,4a3.329,3.329,0,0,1,1.106-.83,2.73,2.73,0,0,1,1.452-.277,3.285,3.285,0,0,1,1.66.415,2.3,2.3,0,0,1,1.037,1.106l-1.037.761a1.24,1.24,0,0,0-.346-.484,1.652,1.652,0,0,0-.9-.484,1.177,1.177,0,0,0-.484-.069,1.914,1.914,0,0,0-.9.207,1.633,1.633,0,0,0-.622.553,2.684,2.684,0,0,0-.415.761,3.471,3.471,0,0,0-.138.83,4.048,4.048,0,0,0,.138.9,2.684,2.684,0,0,0,.415.761,2.708,2.708,0,0,0,.692.553,1.841,1.841,0,0,0,.83.207,1.177,1.177,0,0,0,.484-.069c.138-.069.346-.138.484-.207a1.833,1.833,0,0,0,.415-.346,2.928,2.928,0,0,0,.346-.484l1.106.622A2.429,2.429,0,0,1,119.448,9.6a3.749,3.749,0,0,1-1.729.415,3.148,3.148,0,0,1-1.383-.346,4.219,4.219,0,0,1-1.106-.83,4.048,4.048,0,0,1-.692-1.176c0-.277-.138-.761-.138-1.245" transform="translate(-35.286 -0.886)" fill="#40e0d0"/>
      <path id="Path_13" data-name="Path 13" d="M131.9,3h1.245l2.7,7.054h-1.383l-.692-1.8h-2.49l-.622,1.8H129.2Zm1.591,4.357-.968-2.766-1.037,2.766Z" transform="translate(-39.851 -0.925)" fill="#40e0d0"/>
      <path id="Path_14" data-name="Path 14" d="M144.3,6.427a4.342,4.342,0,0,1,.207-1.314,3.011,3.011,0,0,1,.692-1.106A3.619,3.619,0,0,1,147.758,2.9a3.285,3.285,0,0,1,1.66.415,2.3,2.3,0,0,1,1.037,1.106l-1.037.761a1.24,1.24,0,0,0-.346-.484,1.652,1.652,0,0,0-.9-.484,1.177,1.177,0,0,0-.484-.069,1.914,1.914,0,0,0-.9.207,1.633,1.633,0,0,0-.622.553,1.648,1.648,0,0,0-.415.761,3.471,3.471,0,0,0-.138.83,4.048,4.048,0,0,0,.138.9,1.648,1.648,0,0,0,.415.761,4.475,4.475,0,0,0,.622.553,1.841,1.841,0,0,0,.83.207,1.177,1.177,0,0,0,.484-.069,3.372,3.372,0,0,0,.484-.207A1.834,1.834,0,0,0,149,8.294a1.24,1.24,0,0,0,.346-.484l1.106.622a2.429,2.429,0,0,1-1.176,1.176,4.231,4.231,0,0,1-.83.346,3.5,3.5,0,0,1-.9.138,2.43,2.43,0,0,1-1.383-.346,4.219,4.219,0,0,1-1.106-.83,4.049,4.049,0,0,1-.692-1.176,9.291,9.291,0,0,0-.069-1.314" transform="translate(-44.508 -0.894)" fill="#40e0d0"/>
      <path id="Path_15" data-name="Path 15" d="M160.3,10.123V3h1.383v7.054H160.3Z" transform="translate(-49.443 -0.925)" fill="#40e0d0"/>
      <path id="Path_16" data-name="Path 16" d="M172.668,9.2a3.1,3.1,0,0,1-1.383-.277,3.673,3.673,0,0,1-1.8-4.633,3.159,3.159,0,0,1,.761-1.106,2.457,2.457,0,0,1,1.106-.761,3.1,3.1,0,0,1,1.383-.277,3.148,3.148,0,0,1,1.383.346,4.219,4.219,0,0,1,1.106.83,4.192,4.192,0,0,1,.968,2.49,3.1,3.1,0,0,1-.277,1.383,3.011,3.011,0,0,1-.692,1.106,2.9,2.9,0,0,1-1.106.761,10.317,10.317,0,0,1-1.452.138m-2.075-3.6a4.048,4.048,0,0,0,.138.9,1.649,1.649,0,0,0,.415.761,4.474,4.474,0,0,0,.622.553,1.914,1.914,0,0,0,.9.207,2.129,2.129,0,0,0,.9-.207,1.633,1.633,0,0,0,.622-.553A1.649,1.649,0,0,0,174.6,6.5a3.471,3.471,0,0,0,.138-.83,4.048,4.048,0,0,0-.138-.9,1.649,1.649,0,0,0-.415-.761,4.472,4.472,0,0,0-.622-.553,1.914,1.914,0,0,0-.9-.207,2.129,2.129,0,0,0-.9.207,1.633,1.633,0,0,0-.622.553,2.557,2.557,0,0,0-.346.761l-.207.83m2.49-4.149-.83-.277L172.806,0h1.245Z" transform="translate(-52.199 0)" fill="#40e0d0"/>
      <path id="Path_17" data-name="Path 17" d="M187.583,5.559v4.564H186.2V3h1.107l3.665,4.633V3h1.383v7.054h-1.106Z" transform="translate(-57.432 -0.925)" fill="#40e0d0"/>
      <path id="Path_18" data-name="Path 18" d="M55.043,52.586a3.043,3.043,0,1,1,3.043-3.043,3.07,3.07,0,0,1-3.043,3.043m0-5.6A2.559,2.559,0,1,0,57.6,49.543a2.6,2.6,0,0,0-2.559-2.559m-1.245.968h1.383a1.025,1.025,0,0,1,.484.069,1.512,1.512,0,0,1,.346.207c.069.069.138.207.207.277a.9.9,0,0,1,0,.692c-.069.069-.069.207-.138.277l-.207.207c-.069.069-.207.069-.277.138L56.426,51H55.8l-.761-1.106h-.692V51H53.8V47.952m1.314,1.591A1,1,0,0,0,55.6,49.4a.418.418,0,0,0,.207-.415.983.983,0,0,0-.138-.415,1,1,0,0,0-.484-.138H54.42v1.106Z" transform="translate(-16.039 -14.342)" fill="#40e0d0"/>
      <path id="Path_19" data-name="Path 19" d="M30.168,3l-.069.138-9.751,4.5L11.427,4.521,9.49,13.788.638,19.736H.5L10.6,3Z" transform="translate(-0.154 -0.925)" fill="#2fa69a"/>
      <path id="Path_20" data-name="Path 20" d="M30.055,4.8,27.012,9.779l-.277.484L25.7,11.992l-5.048,8.3H2.6l8.644-5.809L12.9,6.46l7.676,2.7Z" transform="translate(-0.802 -1.48)" fill="#2fa69a"/>
      <path id="Path_21" data-name="Path 21" d="M32.2,21.991l2.9-4.772,1.176-1.936,1.521-2.49,3.8-6.293L42.3,16.873l6.224,5.394-6.362,5.256-1.037,10.3-2.9-5.118-.277-.484L36.972,30.5Z" transform="translate(-9.932 -2.005)" fill="#3bd0c1"/>
      <path id="Path_22" data-name="Path 22" d="M46.553,4.838l.069-.138,9.613,17.081L46.069,38.517,46,38.379,47.037,27.8l7.4-6.086-7.192-6.224Z" transform="translate(-14.188 -1.449)" fill="#3bd0c1"/>
      <path id="Path_23" data-name="Path 23" d="M20.219,30.8l4.772,8.437.968,1.729.277.484,2.9,5.048L19.8,42.072l-7.745,2.7-1.521-8.022L2.1,30.8H20.219Z" transform="translate(-0.648 -9.5)" fill="#237971"/>
      <path id="Path_24" data-name="Path 24" d="M.138,30.8l8.714,6.086,1.66,9.336,9.059-3.181L29.115,47.6l.138.138H9.682L0,30.8Z" transform="translate(0 -9.5)" fill="#237971"/>
    </g>
  </g>
</svg>
