<svg xmlns="http://www.w3.org/2000/svg" width="72" height="72" viewBox="0 0 72 72">
  <g id="Group_120" data-name="Group 120" transform="translate(-341 -24)">
    <circle id="Ellipse_9" data-name="Ellipse 9" cx="36" cy="36" r="36" transform="translate(341 24)" fill="#f0fffe"/>
    <g id="Code-Security" transform="translate(352 35)">
      <rect id="Rectangle_10787" data-name="Rectangle 10787" width="50" height="50" fill="#40e0d0" opacity="0"/>
      <path id="Path_4337" data-name="Path 4337" d="M26.438,11.938h3.125A1.562,1.562,0,0,1,31.125,13.5V32.25a1.562,1.562,0,0,1-1.562,1.563h-25A1.562,1.562,0,0,1,3,32.25V13.5a1.563,1.563,0,0,1,1.563-1.562H7.688V10.375a9.375,9.375,0,0,1,18.75,0ZM6.125,15.063V30.688H28V15.063Zm9.375,6.25h3.125v3.125H15.5Zm-6.25,0h3.125v3.125H9.25Zm12.5,0h3.125v3.125H21.75Zm1.563-9.375V10.375a6.25,6.25,0,0,0-12.5,0v1.563Z" transform="translate(7.938 8.375)" fill="#40e0d0"/>
    </g>
  </g>
</svg>
